<?xml version="1.0" encoding="UTF-8"?>
<svg xmlns="http://www.w3.org/2000/svg" viewBox="0 0 484.91 102.59" width="100%" height="100%" preserveAspectRatio="xMidYMid meet" role="img" aria-label="WebMS full logo (animated)"><title>WebMS — WEBSITE MANAGEMENT SYSTEM (animated)</title>
  <style>
    .spin{transform-origin:0 0;animation:spin 18s linear infinite}
    @keyframes spin{to{transform:rotate(360deg)}}
    .grow{transform-box:fill-box;transform-origin:50% 100%;animation:grow 2.4s ease-in-out infinite}
    @keyframes grow{0%,100%{transform:scale(1)}50%{transform:scale(1.06)}}
    @media (prefers-reduced-motion:reduce){.spin,.grow{animation:none!important}.grow{transform:none}}
  </style>
  <defs><linearGradient id="brand" x1="0" y1="0" x2="1" y2="1"><stop offset="0" stop-color="#5e6ad2"/><stop offset="1" stop-color="#7a85e8"/></linearGradient><linearGradient id="ink"><stop offset="0" stop-color="#23263a"/><stop offset="1" stop-color="#23263a"/></linearGradient><linearGradient id="grey"><stop offset="0" stop-color="#8b90a0"/><stop offset="1" stop-color="#8b90a0"/></linearGradient></defs>
  <g id="emblem" transform="translate(-1.496 -3.733) scale(1.6184)"><g fill="url(#brand)"><g transform="translate(32 34)"><g class="spin"><g transform="translate(-32 -34)"><rect x="18.70" y="20.70" width="26.60" height="4.60" rx="2.30" transform="rotate(-90.00 32 23)"/><rect x="7.78" y="39.70" width="29.44" height="4.60" rx="2.30" transform="rotate(139.90 22.5 42)"/><rect x="26.78" y="39.70" width="29.44" height="4.60" rx="2.30" transform="rotate(40.10 41.5 42)"/><circle cx="32" cy="12" r="5"/><circle cx="13" cy="50" r="5"/><circle cx="51" cy="50" r="5"/></g></g></g><rect x="24" y="26" width="16" height="16" rx="5"/></g></g>
  <g id="wordmark"><path fill="url(#ink)" d="M147.614 74.107L132.725 74.107L113.636 3.000L127.571 3.000L140.742 56.449L154.582 3.000L168.039 3.000L181.783 56.449L194.955 3.000L208.890 3.000L189.801 74.107L174.911 74.107L161.263 22.948L147.614 74.107Z M238.896 75.252L238.896 75.252Q230.878 75.252 224.865 71.625Q218.852 67.998 215.511 61.794Q212.171 55.590 212.171 48.050L212.171 48.050Q212.171 40.224 215.559 34.163Q218.947 28.102 224.817 24.571Q230.687 21.039 237.941 21.039L237.941 21.039Q244.050 21.039 248.679 23.043Q253.308 25.048 256.553 28.579Q259.798 32.111 261.516 36.644Q263.234 41.178 263.234 46.428L263.234 46.428Q263.234 47.764 263.091 49.195Q262.948 50.627 262.566 51.677L262.566 51.677L225.151 51.677Q225.438 54.350 226.488 56.545L226.488 56.545Q228.110 60.267 231.403 62.271Q234.696 64.276 238.991 64.276Q243.286 64.276 246.293 62.462Q249.299 60.649 251.017 57.595L251.017 57.595L261.134 62.558Q259.607 66.280 256.362 69.144Q253.117 72.007 248.679 73.629Q244.240 75.252 238.896 75.252ZM225.438 42.133L225.438 42.133L249.872 42.133Q249.776 40.319 249.204 38.792L249.204 38.792Q247.867 35.356 244.956 33.352Q242.045 31.347 237.941 31.347L237.941 31.347Q234.028 31.347 230.974 33.304Q227.919 35.260 226.392 38.983L226.392 38.983Q225.724 40.510 225.438 42.133Z M299.539 75.252L299.539 75.252Q293.908 75.252 289.231 72.961L289.231 72.961Q285.413 71.243 282.932 68.189L282.932 68.189L282.932 74.107L271.192 74.107L271.192 1.855L283.695 1.855L283.695 27.434Q285.890 24.952 289.040 23.330L289.040 23.330Q293.621 21.039 299.634 21.039L299.634 21.039Q306.984 21.039 312.901 24.666Q318.819 28.293 322.303 34.401Q325.786 40.510 325.786 48.146L325.786 48.146Q325.786 55.686 322.350 61.890Q318.914 68.094 312.997 71.673Q307.079 75.252 299.539 75.252ZM298.107 63.799L298.107 63.799Q302.402 63.799 305.743 61.794Q309.084 59.790 310.945 56.258Q312.806 52.727 312.806 48.146Q312.806 43.564 310.945 40.080Q309.084 36.597 305.743 34.545Q302.402 32.493 298.107 32.493L298.107 32.493Q294.003 32.493 290.710 34.497Q287.417 36.501 285.556 40.080Q283.695 43.660 283.695 48.146L283.695 48.146Q283.695 52.727 285.556 56.258Q287.417 59.790 290.710 61.794Q294.003 63.799 298.107 63.799Z"/><path fill="url(#brand)" d="M348.693 74.107L333.899 74.107L333.899 3.000L348.216 3.000L371.409 33.829L394.030 3.000L408.347 3.000L408.347 74.107L393.553 74.107L393.553 28.293L372.077 55.972L370.168 55.972L348.693 27.243L348.693 74.107Z M445.320 75.252L445.320 75.252Q438.639 75.252 432.769 72.818Q426.899 70.384 422.651 65.898Q418.404 61.412 416.304 55.304L416.304 55.304L428.426 49.864Q431.098 55.686 435.823 59.026Q440.547 62.367 446.274 62.367L446.274 62.367Q449.328 62.367 451.524 61.412Q453.719 60.458 454.960 58.788Q456.200 57.117 456.200 54.827L456.200 54.827Q456.200 52.345 454.673 50.579Q453.146 48.814 449.901 47.764L449.901 47.764L435.966 43.182Q427.471 40.415 423.176 35.308Q418.881 30.202 418.881 23.043L418.881 23.043Q418.881 16.744 421.983 11.972Q425.085 7.200 430.669 4.527Q436.252 1.855 443.506 1.855L443.506 1.855Q449.901 1.855 455.341 4.050Q460.782 6.245 464.743 10.254Q468.704 14.263 470.708 19.894L470.708 19.894L458.682 25.334Q456.678 20.371 452.669 17.555Q448.660 14.740 443.506 14.740L443.506 14.740Q440.547 14.740 438.257 15.694Q435.966 16.649 434.725 18.414Q433.484 20.180 433.484 22.471L433.484 22.471Q433.484 24.952 435.107 26.814Q436.730 28.675 439.975 29.725L439.975 29.725L453.623 34.115Q462.213 36.883 466.461 41.846Q470.708 46.809 470.708 53.968L470.708 53.968Q470.708 60.172 467.463 64.992Q464.218 69.812 458.539 72.532Q452.860 75.252 445.320 75.252Z"/></g>
  <g id="subtag"><path fill="url(#grey)" d="M118.850 99.586L116.474 99.586L112.784 86.176L115.034 86.176L117.752 96.724L120.560 86.176L122.774 86.176L125.582 96.688L128.300 86.176L130.532 86.176L126.860 99.586L124.466 99.586L121.658 89.308L118.850 99.586Z M144.194 99.586L135.356 99.586L135.356 86.176L144.194 86.176L144.194 88.066L137.480 88.066L137.480 91.918L143.834 91.918L143.834 93.808L137.480 93.808L137.480 97.696L144.194 97.696L144.194 99.586Z M155.084 99.586L149.414 99.586L149.414 86.176L155.066 86.176Q156.326 86.176 157.244 86.617Q158.162 87.058 158.648 87.877Q159.134 88.696 159.134 89.812L159.134 89.812Q159.134 90.784 158.648 91.576L158.648 91.576Q158.360 92.026 157.928 92.368L157.928 92.368Q158.306 92.584 158.594 92.854L158.594 92.854Q159.170 93.412 159.431 94.096Q159.692 94.780 159.692 95.536L159.692 95.536Q159.692 97.426 158.459 98.506Q157.226 99.586 155.084 99.586L155.084 99.586ZM151.538 93.394L151.538 97.696L155.246 97.696Q156.308 97.696 156.938 97.111Q157.568 96.526 157.568 95.554L157.568 95.554Q157.568 94.564 156.938 93.979Q156.308 93.394 155.246 93.394L155.246 93.394L151.538 93.394ZM151.538 88.012L151.538 91.522L155.120 91.522Q155.984 91.522 156.506 91.027Q157.028 90.532 157.028 89.722Q157.028 88.912 156.506 88.462Q155.984 88.012 155.120 88.012L155.120 88.012L151.538 88.012Z M169.808 99.802L169.808 99.802Q168.548 99.802 167.468 99.325Q166.388 98.848 165.632 98.020Q164.876 97.192 164.516 96.112L164.516 96.112L166.316 95.356Q166.802 96.598 167.738 97.264Q168.674 97.930 169.898 97.930L169.898 97.930Q170.618 97.930 171.158 97.705Q171.698 97.480 171.995 97.066Q172.292 96.652 172.292 96.112L172.292 96.112Q172.292 95.374 171.878 94.942Q171.464 94.510 170.654 94.258L170.654 94.258L168.134 93.466Q166.622 92.998 165.830 92.035Q165.038 91.072 165.038 89.776L165.038 89.776Q165.038 88.642 165.596 87.787Q166.154 86.932 167.135 86.446Q168.116 85.960 169.376 85.960L169.376 85.960Q170.582 85.960 171.572 86.383Q172.562 86.806 173.273 87.544Q173.984 88.282 174.308 89.254L174.308 89.254L172.544 90.028Q172.148 88.966 171.311 88.390Q170.474 87.814 169.376 87.814L169.376 87.814Q168.710 87.814 168.206 88.039Q167.702 88.264 167.423 88.687Q167.144 89.110 167.144 89.668L167.144 89.668Q167.144 90.316 167.558 90.820Q167.972 91.324 168.818 91.576L168.818 91.576L171.158 92.314Q172.760 92.800 173.570 93.709Q174.380 94.618 174.380 95.968L174.380 95.968Q174.380 97.084 173.795 97.948Q173.210 98.812 172.184 99.307Q171.158 99.802 169.808 99.802Z M182.120 99.586L179.996 99.586L179.996 86.176L182.120 86.176L182.120 99.586Z M192.614 99.586L190.508 99.586L190.508 88.066L186.944 88.066L186.944 86.176L196.124 86.176L196.124 88.066L192.614 88.066L192.614 99.586Z M209.786 99.586L200.948 99.586L200.948 86.176L209.786 86.176L209.786 88.066L203.072 88.066L203.072 91.918L209.426 91.918L209.426 93.808L203.072 93.808L203.072 97.696L209.786 97.696L209.786 99.586Z  M223.520 99.586L221.396 99.586L221.396 86.176L223.376 86.176L227.912 92.476L232.376 86.176L234.356 86.176L234.356 99.586L232.250 99.586L232.250 89.974L227.984 95.806L227.768 95.806L223.520 89.866L223.520 99.586Z M241.448 99.586L239.180 99.586L243.896 86.176L246.524 86.176L251.240 99.586L248.972 99.586L247.946 96.580L242.492 96.580L241.448 99.586ZM245.210 88.534L243.104 94.690L247.298 94.690L245.210 88.534Z M258.188 99.586L256.064 99.586L256.064 86.176L257.774 86.176L264.488 95.446L264.488 86.176L266.594 86.176L266.594 99.586L264.884 99.586L258.188 90.208L258.188 99.586Z M273.686 99.586L271.418 99.586L276.134 86.176L278.762 86.176L283.478 99.586L281.210 99.586L280.184 96.580L274.730 96.580L273.686 99.586ZM277.448 88.534L275.342 94.690L279.536 94.690L277.448 88.534Z M294.584 99.802L294.584 99.802Q293.162 99.802 291.947 99.280Q290.732 98.758 289.823 97.831Q288.914 96.904 288.410 95.644Q287.906 94.384 287.906 92.872L287.906 92.872Q287.906 91.378 288.401 90.109Q288.896 88.840 289.796 87.913Q290.696 86.986 291.902 86.473Q293.108 85.960 294.548 85.960L294.548 85.960Q295.970 85.960 297.095 86.446Q298.220 86.932 298.994 87.715Q299.768 88.498 300.110 89.416L300.110 89.416L298.220 90.334Q297.806 89.236 296.852 88.561Q295.898 87.886 294.548 87.886L294.548 87.886Q293.216 87.886 292.190 88.516Q291.164 89.146 290.597 90.262Q290.030 91.378 290.030 92.872Q290.030 94.366 290.615 95.491Q291.200 96.616 292.226 97.237Q293.252 97.858 294.584 97.858L294.584 97.858Q295.700 97.858 296.627 97.399Q297.554 96.940 298.112 96.103Q298.670 95.266 298.670 94.150L298.670 94.150L298.670 94.096L294.548 94.096L294.548 92.296L300.776 92.296L300.776 93.556Q300.776 95.032 300.272 96.193Q299.768 97.354 298.904 98.164Q298.040 98.974 296.924 99.388Q295.808 99.802 294.584 99.802Z M315.014 99.586L306.176 99.586L306.176 86.176L315.014 86.176L315.014 88.066L308.300 88.066L308.300 91.918L314.654 91.918L314.654 93.808L308.300 93.808L308.300 97.696L315.014 97.696L315.014 99.586Z M322.358 99.586L320.234 99.586L320.234 86.176L322.214 86.176L326.750 92.476L331.214 86.176L333.194 86.176L333.194 99.586L331.088 99.586L331.088 89.974L326.822 95.806L326.606 95.806L322.358 89.866L322.358 99.586Z M348.044 99.586L339.206 99.586L339.206 86.176L348.044 86.176L348.044 88.066L341.330 88.066L341.330 91.918L347.684 91.918L347.684 93.808L341.330 93.808L341.330 97.696L348.044 97.696L348.044 99.586Z M355.388 99.586L353.264 99.586L353.264 86.176L354.974 86.176L361.688 95.446L361.688 86.176L363.794 86.176L363.794 99.586L362.084 99.586L355.388 90.208L355.388 99.586Z M374.288 99.586L372.182 99.586L372.182 88.066L368.618 88.066L368.618 86.176L377.798 86.176L377.798 88.066L374.288 88.066L374.288 99.586Z  M393.710 99.802L393.710 99.802Q392.450 99.802 391.370 99.325Q390.290 98.848 389.534 98.020Q388.778 97.192 388.418 96.112L388.418 96.112L390.218 95.356Q390.704 96.598 391.640 97.264Q392.576 97.930 393.800 97.930L393.800 97.930Q394.520 97.930 395.060 97.705Q395.600 97.480 395.897 97.066Q396.194 96.652 396.194 96.112L396.194 96.112Q396.194 95.374 395.780 94.942Q395.366 94.510 394.556 94.258L394.556 94.258L392.036 93.466Q390.524 92.998 389.732 92.035Q388.940 91.072 388.940 89.776L388.940 89.776Q388.940 88.642 389.498 87.787Q390.056 86.932 391.037 86.446Q392.018 85.960 393.278 85.960L393.278 85.960Q394.484 85.960 395.474 86.383Q396.464 86.806 397.175 87.544Q397.886 88.282 398.210 89.254L398.210 89.254L396.446 90.028Q396.050 88.966 395.213 88.390Q394.376 87.814 393.278 87.814L393.278 87.814Q392.612 87.814 392.108 88.039Q391.604 88.264 391.325 88.687Q391.046 89.110 391.046 89.668L391.046 89.668Q391.046 90.316 391.460 90.820Q391.874 91.324 392.720 91.576L392.720 91.576L395.060 92.314Q396.662 92.800 397.472 93.709Q398.282 94.618 398.282 95.968L398.282 95.968Q398.282 97.084 397.697 97.948Q397.112 98.812 396.086 99.307Q395.060 99.802 393.710 99.802Z M409.406 99.586L407.300 99.586L407.300 93.538L402.710 86.176L405.104 86.176L408.344 91.450L411.584 86.176L413.978 86.176L409.406 93.538L409.406 99.586Z M423.500 99.802L423.500 99.802Q422.240 99.802 421.160 99.325Q420.080 98.848 419.324 98.020Q418.568 97.192 418.208 96.112L418.208 96.112L420.008 95.356Q420.494 96.598 421.430 97.264Q422.366 97.930 423.590 97.930L423.590 97.930Q424.310 97.930 424.850 97.705Q425.390 97.480 425.687 97.066Q425.984 96.652 425.984 96.112L425.984 96.112Q425.984 95.374 425.570 94.942Q425.156 94.510 424.346 94.258L424.346 94.258L421.826 93.466Q420.314 92.998 419.522 92.035Q418.730 91.072 418.730 89.776L418.730 89.776Q418.730 88.642 419.288 87.787Q419.846 86.932 420.827 86.446Q421.808 85.960 423.068 85.960L423.068 85.960Q424.274 85.960 425.264 86.383Q426.254 86.806 426.965 87.544Q427.676 88.282 428.000 89.254L428.000 89.254L426.236 90.028Q425.840 88.966 425.003 88.390Q424.166 87.814 423.068 87.814L423.068 87.814Q422.402 87.814 421.898 88.039Q421.394 88.264 421.115 88.687Q420.836 89.110 420.836 89.668L420.836 89.668Q420.836 90.316 421.250 90.820Q421.664 91.324 422.510 91.576L422.510 91.576L424.850 92.314Q426.452 92.800 427.262 93.709Q428.072 94.618 428.072 95.968L428.072 95.968Q428.072 97.084 427.487 97.948Q426.902 98.812 425.876 99.307Q424.850 99.802 423.500 99.802Z M438.170 99.586L436.064 99.586L436.064 88.066L432.500 88.066L432.500 86.176L441.680 86.176L441.680 88.066L438.170 88.066L438.170 99.586Z M455.342 99.586L446.504 99.586L446.504 86.176L455.342 86.176L455.342 88.066L448.628 88.066L448.628 91.918L454.982 91.918L454.982 93.808L448.628 93.808L448.628 97.696L455.342 97.696L455.342 99.586Z M462.686 99.586L460.562 99.586L460.562 86.176L462.542 86.176L467.078 92.476L471.542 86.176L473.522 86.176L473.522 99.586L471.416 99.586L471.416 89.974L467.150 95.806L466.934 95.806L462.686 89.866L462.686 99.586Z"/></g>
</svg>