<?xml version="1.0"?>
<svg xmlns="http://www.w3.org/2000/svg" viewBox="-10.00 -18.95 262.95 29.09" width="100%" height="100%" preserveAspectRatio="xMidYMid meet" role="img" aria-label="WEBSITE MANAGEMENT SYSTEM">
  <title>WEBSITE MANAGEMENT SYSTEM</title>
  <desc>Descriptor, letterspaced caps, justified to exactly the WebMS wordmark width. Wordmark text is outlined from Plus Jakarta Sans (prefix 700, &#34;MS&#34; 800, descriptor 600) — no font dependency. HOW TO RECOLOUR: every colour is a named token in <defs> (brand, ink, grey, etc.) referenced by fill=&#34;url(#token)&#34;. Edit a token&#39;s stop-color(s) once to recolour everywhere it is used.</defs></desc>
  <defs>
    <linearGradient id="grey"><desc>GREY token — descriptor / subtag. Edit the stop-colors to recolour everything referencing fill=&#34;url(#grey)&#34;.</desc><stop offset="0" stop-color="#8b90a0"></stop><stop offset="1" stop-color="#8b90a0"></stop></linearGradient>
  </defs>
  <g id="subtag"><title>WEBSITE MANAGEMENT SYSTEM</title><desc>Plus Jakarta Sans 600, GREY token, tracked to the wordmark width.</desc>
    <path fill="url(#grey)" d="M4.114 0L2.553 0L0.130-8.807L1.608-8.807L3.393-1.880L5.237-8.807L6.691-8.807L8.535-1.903L10.320-8.807L11.786-8.807L9.374 0L7.802 0L5.958-6.750L4.114 0Z M20.967 0L15.162 0L15.162-8.807L20.967-8.807L20.967-7.566L16.557-7.566L16.557-5.036L20.730-5.036L20.730-3.795L16.557-3.795L16.557-1.241L20.967-1.241L20.967 0Z M28.327 0L24.603 0L24.603-8.807L28.315-8.807Q29.143-8.807 29.746-8.517Q30.348-8.228 30.668-7.690Q30.987-7.152 30.987-6.419L30.987-6.419Q30.987-5.781 30.668-5.261L30.668-5.261Q30.478-4.965 30.195-4.740L30.195-4.740Q30.443-4.599 30.632-4.421L30.632-4.421Q31.010-4.055 31.182-3.606Q31.353-3.156 31.353-2.660L31.353-2.660Q31.353-1.419 30.544-0.709Q29.734 0 28.327 0L28.327 0ZM25.998-4.067L25.998-1.241L28.433-1.241Q29.131-1.241 29.545-1.625Q29.958-2.010 29.958-2.648L29.958-2.648Q29.958-3.298 29.545-3.682Q29.131-4.067 28.433-4.067L28.433-4.067L25.998-4.067ZM25.998-7.601L25.998-5.296L28.351-5.296Q28.918-5.296 29.261-5.621Q29.604-5.946 29.604-6.478Q29.604-7.010 29.261-7.306Q28.918-7.601 28.351-7.601L28.351-7.601L25.998-7.601Z M38.205 0.142L38.205 0.142Q37.378 0.142 36.668-0.171Q35.959-0.485 35.463-1.028Q34.966-1.572 34.730-2.282L34.730-2.282L35.912-2.778Q36.231-1.962 36.846-1.525Q37.460-1.088 38.264-1.088L38.264-1.088Q38.737-1.088 39.092-1.235Q39.446-1.383 39.641-1.655Q39.837-1.927 39.837-2.282L39.837-2.282Q39.837-2.766 39.565-3.050Q39.293-3.334 38.761-3.499L38.761-3.499L37.106-4.019Q36.113-4.327 35.593-4.959Q35.072-5.592 35.072-6.443L35.072-6.443Q35.072-7.187 35.439-7.749Q35.805-8.311 36.450-8.630Q37.094-8.949 37.921-8.949L37.921-8.949Q38.714-8.949 39.364-8.671Q40.014-8.393 40.481-7.909Q40.948-7.424 41.161-6.786L41.161-6.786L40.002-6.277Q39.742-6.975 39.192-7.353Q38.643-7.731 37.921-7.731L37.921-7.731Q37.484-7.731 37.153-7.583Q36.822-7.436 36.639-7.158Q36.456-6.880 36.456-6.514L36.456-6.514Q36.456-6.088 36.727-5.757Q36.999-5.426 37.555-5.261L37.555-5.261L39.092-4.776Q40.144-4.457 40.676-3.860Q41.208-3.263 41.208-2.376L41.208-2.376Q41.208-1.643 40.824-1.076Q40.439-0.508 39.766-0.183Q39.092 0.142 38.205 0.142Z M46.499 0L45.104 0L45.104-8.807L46.499-8.807L46.499 0Z M53.599 0L52.216 0L52.216-7.566L49.876-7.566L49.876-8.807L55.905-8.807L55.905-7.566L53.599-7.566L53.599 0Z M65.085 0L59.281 0L59.281-8.807L65.085-8.807L65.085-7.566L60.676-7.566L60.676-5.036L64.849-5.036L64.849-3.795L60.676-3.795L60.676-1.241L65.085-1.241L65.085 0Z  M74.522 0L73.127 0L73.127-8.807L74.427-8.807L77.406-4.669L80.338-8.807L81.638-8.807L81.638 0L80.255 0L80.255-6.313L77.453-2.483L77.311-2.483L74.522-6.384L74.522 0Z M86.504 0L85.014 0L88.112-8.807L89.838-8.807L92.935 0L91.445 0L90.772-1.974L87.190-1.974L86.504 0ZM88.975-7.258L87.592-3.215L90.346-3.215L88.975-7.258Z M97.706 0L96.311 0L96.311-8.807L97.434-8.807L101.844-2.719L101.844-8.807L103.227-8.807L103.227 0L102.104 0L97.706-6.159L97.706 0Z M108.093 0L106.603 0L109.700-8.807L111.426-8.807L114.524 0L113.034 0L112.360-1.974L108.778-1.974L108.093 0ZM110.563-7.258L109.180-3.215L111.935-3.215L110.563-7.258Z M122.026 0.142L122.026 0.142Q121.092 0.142 120.294-0.201Q119.496-0.544 118.899-1.153Q118.302-1.761 117.971-2.589Q117.640-3.416 117.640-4.409L117.640-4.409Q117.640-5.391 117.965-6.224Q118.290-7.057 118.881-7.666Q119.472-8.275 120.264-8.612Q121.056-8.949 122.002-8.949L122.002-8.949Q122.936-8.949 123.675-8.630Q124.414-8.311 124.922-7.796Q125.430-7.282 125.655-6.679L125.655-6.679L124.414-6.076Q124.142-6.797 123.515-7.241Q122.889-7.684 122.002-7.684L122.002-7.684Q121.127-7.684 120.453-7.270Q119.780-6.856 119.407-6.124Q119.035-5.391 119.035-4.409Q119.035-3.428 119.419-2.689Q119.803-1.951 120.477-1.543Q121.151-1.135 122.026-1.135L122.026-1.135Q122.759-1.135 123.367-1.436Q123.976-1.738 124.343-2.287Q124.709-2.837 124.709-3.570L124.709-3.570L124.709-3.606L122.002-3.606L122.002-4.788L126.092-4.788L126.092-3.960Q126.092-2.991 125.761-2.228Q125.430-1.466 124.863-0.934Q124.295-0.402 123.562-0.130Q122.830 0.142 122.026 0.142Z M135.651 0L129.847 0L129.847-8.807L135.651-8.807L135.651-7.566L131.242-7.566L131.242-5.036L135.415-5.036L135.415-3.795L131.242-3.795L131.242-1.241L135.651-1.241L135.651 0Z M140.683 0L139.288 0L139.288-8.807L140.588-8.807L143.567-4.669L146.499-8.807L147.799-8.807L147.799 0L146.416 0L146.416-6.313L143.614-2.483L143.473-2.483L140.683-6.384L140.683 0Z M157.760 0L151.956 0L151.956-8.807L157.760-8.807L157.760-7.566L153.351-7.566L153.351-5.036L157.524-5.036L157.524-3.795L153.351-3.795L153.351-1.241L157.760-1.241L157.760 0Z M162.792 0L161.397 0L161.397-8.807L162.520-8.807L166.929-2.719L166.929-8.807L168.312-8.807L168.312 0L167.189 0L162.792-6.159L162.792 0Z M175.412 0L174.029 0L174.029-7.566L171.689-7.566L171.689-8.807L177.718-8.807L177.718-7.566L175.412-7.566L175.412 0Z  M188.584 0.142L188.584 0.142Q187.757 0.142 187.047-0.171Q186.338-0.485 185.842-1.028Q185.345-1.572 185.109-2.282L185.109-2.282L186.291-2.778Q186.610-1.962 187.225-1.525Q187.839-1.088 188.643-1.088L188.643-1.088Q189.116-1.088 189.471-1.235Q189.825-1.383 190.020-1.655Q190.216-1.927 190.216-2.282L190.216-2.282Q190.216-2.766 189.944-3.050Q189.672-3.334 189.140-3.499L189.140-3.499L187.485-4.019Q186.492-4.327 185.972-4.959Q185.451-5.592 185.451-6.443L185.451-6.443Q185.451-7.187 185.818-7.749Q186.184-8.311 186.829-8.630Q187.473-8.949 188.300-8.949L188.300-8.949Q189.092-8.949 189.743-8.671Q190.393-8.393 190.860-7.909Q191.327-7.424 191.540-6.786L191.540-6.786L190.381-6.277Q190.121-6.975 189.571-7.353Q189.022-7.731 188.300-7.731L188.300-7.731Q187.863-7.731 187.532-7.583Q187.201-7.436 187.018-7.158Q186.835-6.880 186.835-6.514L186.835-6.514Q186.835-6.088 187.106-5.757Q187.378-5.426 187.934-5.261L187.934-5.261L189.471-4.776Q190.523-4.457 191.055-3.860Q191.587-3.263 191.587-2.376L191.587-2.376Q191.587-1.643 191.203-1.076Q190.818-0.508 190.145-0.183Q189.471 0.142 188.584 0.142Z M199.101 0L197.718 0L197.718-3.972L194.703-8.807L196.275-8.807L198.403-5.343L200.531-8.807L202.103-8.807L199.101-3.972L199.101 0Z M208.565 0.142L208.565 0.142Q207.738 0.142 207.028-0.171Q206.319-0.485 205.823-1.028Q205.326-1.572 205.090-2.282L205.090-2.282L206.272-2.778Q206.591-1.962 207.206-1.525Q207.820-1.088 208.624-1.088L208.624-1.088Q209.097-1.088 209.452-1.235Q209.806-1.383 210.001-1.655Q210.197-1.927 210.197-2.282L210.197-2.282Q210.197-2.766 209.925-3.050Q209.653-3.334 209.121-3.499L209.121-3.499L207.466-4.019Q206.473-4.327 205.953-4.959Q205.432-5.592 205.432-6.443L205.432-6.443Q205.432-7.187 205.799-7.749Q206.165-8.311 206.810-8.630Q207.454-8.949 208.281-8.949L208.281-8.949Q209.073-8.949 209.724-8.671Q210.374-8.393 210.841-7.909Q211.308-7.424 211.521-6.786L211.521-6.786L210.362-6.277Q210.102-6.975 209.552-7.353Q209.003-7.731 208.281-7.731L208.281-7.731Q207.844-7.731 207.513-7.583Q207.182-7.436 206.999-7.158Q206.816-6.880 206.816-6.514L206.816-6.514Q206.816-6.088 207.087-5.757Q207.359-5.426 207.915-5.261L207.915-5.261L209.452-4.776Q210.504-4.457 211.036-3.860Q211.568-3.263 211.568-2.376L211.568-2.376Q211.568-1.643 211.184-1.076Q210.799-0.508 210.126-0.183Q209.452 0.142 208.565 0.142Z M218.408 0L217.025 0L217.025-7.566L214.684-7.566L214.684-8.807L220.713-8.807L220.713-7.566L218.408-7.566L218.408 0Z M229.894 0L224.089 0L224.089-8.807L229.894-8.807L229.894-7.566L225.484-7.566L225.484-5.036L229.657-5.036L229.657-3.795L225.484-3.795L225.484-1.241L229.894-1.241L229.894 0Z M234.925 0L233.530 0L233.530-8.807L234.831-8.807L237.810-4.669L240.741-8.807L242.042-8.807L242.042 0L240.659 0L240.659-6.313L237.857-2.483L237.715-2.483L234.925-6.384L234.925 0Z"></path>
  </g>
</svg>