<?xml version="1.0"?>
<svg xmlns="http://www.w3.org/2000/svg" viewBox="-10.00 -21.71 338.74 31.90" width="100%" height="100%" preserveAspectRatio="xMidYMid meet" role="img" aria-label="CHURCH MANAGEMENT SYSTEM">
  <title>CHURCH MANAGEMENT SYSTEM</title>
  <desc>Descriptor, letterspaced caps, justified to exactly the ChurchMS wordmark width. Wordmark text is outlined from Plus Jakarta Sans (prefix 700, &#34;MS&#34; 800, descriptor 600) — no font dependency. HOW TO RECOLOUR: every colour is a named token in <defs> (brand, ink, grey, etc.) referenced by fill=&#34;url(#token)&#34;. Edit a token&#39;s stop-color(s) once to recolour everywhere it is used.</defs></desc>
  <defs>
    <linearGradient id="grey"><desc>GREY token — descriptor / subtag. Edit the stop-colors to recolour everything referencing fill=&#34;url(#grey)&#34;.</desc><stop offset="0" stop-color="#8b90a0"></stop><stop offset="1" stop-color="#8b90a0"></stop></linearGradient>
  </defs>
  <g id="subtag"><title>CHURCH MANAGEMENT SYSTEM</title><desc>Plus Jakarta Sans 600, GREY token, tracked to the wordmark width.</desc>
    <path fill="url(#grey)" d="M6.561 0.186L6.561 0.186Q5.339 0.186 4.294-0.263Q3.250-0.712 2.484-1.509Q1.718-2.306 1.284-3.389Q0.851-4.472 0.851-5.772L0.851-5.772Q0.851-7.056 1.277-8.147Q1.702-9.238 2.476-10.035Q3.250-10.832 4.286-11.273Q5.323-11.714 6.561-11.714L6.561-11.714Q7.784-11.714 8.751-11.297Q9.718-10.879 10.384-10.206Q11.049-9.532 11.343-8.743L11.343-8.743L9.703-7.969Q9.331-8.898 8.519-9.478Q7.706-10.059 6.561-10.059L6.561-10.059Q5.416-10.059 4.534-9.517Q3.652-8.975 3.165-8.016Q2.677-7.056 2.677-5.772L2.677-5.772Q2.677-4.488 3.165-3.520Q3.652-2.553 4.534-2.019Q5.416-1.486 6.561-1.486L6.561-1.486Q7.706-1.486 8.519-2.058Q9.331-2.631 9.703-3.559L9.703-3.559L11.343-2.785Q11.049-2.012 10.384-1.331Q9.718-0.650 8.751-0.232Q7.784 0.186 6.561 0.186Z M18.239 0L16.413 0L16.413-11.529L18.239-11.529L18.239-6.453L23.578-6.453L23.578-11.529L25.389-11.529L25.389 0L23.578 0L23.578-4.828L18.239-4.828L18.239 0Z M35.287 0.186L35.287 0.186Q34.003 0.186 33.005-0.356Q32.007-0.898 31.442-1.841Q30.877-2.785 30.877-3.992L30.877-3.992L30.877-11.529L32.703-11.529L32.703-4.070Q32.703-3.312 33.036-2.724Q33.368-2.136 33.949-1.811Q34.529-1.486 35.287-1.486L35.287-1.486Q36.061-1.486 36.641-1.811Q37.222-2.136 37.554-2.724Q37.887-3.312 37.887-4.070L37.887-4.070L37.887-11.529L39.698-11.529L39.698-3.992Q39.698-2.785 39.141-1.841Q38.583-0.898 37.585-0.356Q36.587 0.186 35.287 0.186Z M47.012 0L45.186 0L45.186-11.529L49.380-11.529Q50.540-11.529 51.422-11.103Q52.304-10.678 52.807-9.865Q53.310-9.053 53.310-7.923L53.310-7.923Q53.310-6.732 52.714-5.880Q52.119-5.029 51.113-4.642L51.113-4.642L53.774 0L51.701 0L49.256-4.333L47.012-4.333L47.012 0ZM47.012-9.904L47.012-5.958L49.411-5.958Q50.045-5.958 50.509-6.205Q50.973-6.453 51.229-6.894Q51.484-7.335 51.484-7.939Q51.484-8.542 51.229-8.983Q50.973-9.424 50.509-9.664Q50.045-9.904 49.411-9.904L49.411-9.904L47.012-9.904Z M63.874 0.186L63.874 0.186Q62.652 0.186 61.607-0.263Q60.563-0.712 59.797-1.509Q59.031-2.306 58.597-3.389Q58.164-4.472 58.164-5.772L58.164-5.772Q58.164-7.056 58.590-8.147Q59.015-9.238 59.789-10.035Q60.563-10.832 61.599-11.273Q62.636-11.714 63.874-11.714L63.874-11.714Q65.097-11.714 66.064-11.297Q67.031-10.879 67.696-10.206Q68.362-9.532 68.656-8.743L68.656-8.743L67.016-7.969Q66.644-8.898 65.832-9.478Q65.019-10.059 63.874-10.059L63.874-10.059Q62.729-10.059 61.847-9.517Q60.965-8.975 60.477-8.016Q59.990-7.056 59.990-5.772L59.990-5.772Q59.990-4.488 60.477-3.520Q60.965-2.553 61.847-2.019Q62.729-1.486 63.874-1.486L63.874-1.486Q65.019-1.486 65.832-2.058Q66.644-2.631 67.016-3.559L67.016-3.559L68.656-2.785Q68.362-2.012 67.696-1.331Q67.031-0.650 66.064-0.232Q65.097 0.186 63.874 0.186Z M75.552 0L73.726 0L73.726-11.529L75.552-11.529L75.552-6.453L80.891-6.453L80.891-11.529L82.702-11.529L82.702 0L80.891 0L80.891-4.828L75.552-4.828L75.552 0Z  M96.015 0L94.189 0L94.189-11.529L95.891-11.529L99.791-6.113L103.628-11.529L105.331-11.529L105.331 0L103.520 0L103.520-8.264L99.853-3.250L99.667-3.250L96.015-8.356L96.015 0Z M111.840 0L109.890 0L113.945-11.529L116.204-11.529L120.259 0L118.309 0L117.427-2.584L112.738-2.584L111.840 0ZM115.074-9.501L113.264-4.209L116.870-4.209L115.074-9.501Z M126.644 0L124.818 0L124.818-11.529L126.288-11.529L132.060-3.559L132.060-11.529L133.871-11.529L133.871 0L132.401 0L126.644-8.062L126.644 0Z M140.381 0L138.431 0L142.485-11.529L144.745-11.529L148.799 0L146.849 0L145.967-2.584L141.278-2.584L140.381 0ZM143.615-9.501L141.804-4.209L145.410-4.209L143.615-9.501Z M158.759 0.186L158.759 0.186Q157.537 0.186 156.492-0.263Q155.448-0.712 154.666-1.509Q153.885-2.306 153.452-3.389Q153.018-4.472 153.018-5.772L153.018-5.772Q153.018-7.056 153.444-8.147Q153.869-9.238 154.643-10.035Q155.417-10.832 156.454-11.273Q157.490-11.714 158.728-11.714L158.728-11.714Q159.951-11.714 160.918-11.297Q161.885-10.879 162.551-10.206Q163.216-9.532 163.510-8.743L163.510-8.743L161.885-7.954Q161.529-8.898 160.709-9.478Q159.889-10.059 158.728-10.059L158.728-10.059Q157.583-10.059 156.701-9.517Q155.819-8.975 155.332-8.016Q154.844-7.056 154.844-5.772Q154.844-4.488 155.347-3.520Q155.850-2.553 156.732-2.019Q157.614-1.486 158.759-1.486L158.759-1.486Q159.719-1.486 160.516-1.880Q161.313-2.275 161.792-2.994Q162.272-3.714 162.272-4.673L162.272-4.673L162.272-4.720L158.728-4.720L158.728-6.267L164.083-6.267L164.083-5.184Q164.083-3.915 163.649-2.917Q163.216-1.919 162.473-1.223Q161.731-0.526 160.771-0.170Q159.812 0.186 158.759 0.186Z M176.736 0L169.138 0L169.138-11.529L176.736-11.529L176.736-9.904L170.964-9.904L170.964-6.592L176.426-6.592L176.426-4.967L170.964-4.967L170.964-1.625L176.736-1.625L176.736 0Z M183.462 0L181.636 0L181.636-11.529L183.338-11.529L187.238-6.113L191.076-11.529L192.778-11.529L192.778 0L190.967 0L190.967-8.264L187.300-3.250L187.114-3.250L183.462-8.356L183.462 0Z M205.957 0L198.359 0L198.359-11.529L205.957-11.529L205.957-9.904L200.185-9.904L200.185-6.592L205.648-6.592L205.648-4.967L200.185-4.967L200.185-1.625L205.957-1.625L205.957 0Z M212.683 0L210.857 0L210.857-11.529L212.327-11.529L218.099-3.559L218.099-11.529L219.910-11.529L219.910 0L218.440 0L212.683-8.062L212.683 0Z M229.344 0L227.534 0L227.534-9.904L224.470-9.904L224.470-11.529L232.362-11.529L232.362-9.904L229.344-9.904L229.344 0Z  M246.867 0.186L246.867 0.186Q245.783 0.186 244.855-0.224Q243.926-0.634 243.277-1.346Q242.627-2.058 242.317-2.987L242.317-2.987L243.865-3.637Q244.282-2.569 245.087-1.996Q245.892-1.424 246.944-1.424L246.944-1.424Q247.563-1.424 248.027-1.617Q248.492-1.811 248.747-2.166Q249.002-2.522 249.002-2.987L249.002-2.987Q249.002-3.621 248.646-3.992Q248.290-4.364 247.594-4.581L247.594-4.581L245.428-5.261Q244.128-5.664 243.447-6.492Q242.766-7.320 242.766-8.434L242.766-8.434Q242.766-9.409 243.246-10.144Q243.725-10.879 244.569-11.297Q245.412-11.714 246.495-11.714L246.495-11.714Q247.532-11.714 248.383-11.351Q249.234-10.987 249.846-10.353Q250.457-9.718 250.735-8.882L250.735-8.882L249.219-8.217Q248.878-9.130 248.159-9.625Q247.439-10.120 246.495-10.120L246.495-10.120Q245.923-10.120 245.489-9.927Q245.056-9.734 244.816-9.370Q244.576-9.006 244.576-8.527L244.576-8.527Q244.576-7.969 244.932-7.536Q245.288-7.103 246.016-6.886L246.016-6.886L248.027-6.252Q249.405-5.834 250.101-5.052Q250.797-4.271 250.797-3.110L250.797-3.110Q250.797-2.151 250.294-1.408Q249.791-0.665 248.909-0.240Q248.027 0.186 246.867 0.186Z M260.773 0L258.963 0L258.963-5.200L255.017-11.529L257.075-11.529L259.860-6.995L262.646-11.529L264.704-11.529L260.773-5.200L260.773 0Z M273.302 0.186L273.302 0.186Q272.219 0.186 271.291-0.224Q270.362-0.634 269.712-1.346Q269.062-2.058 268.753-2.987L268.753-2.987L270.300-3.637Q270.718-2.569 271.523-1.996Q272.328-1.424 273.380-1.424L273.380-1.424Q273.999-1.424 274.463-1.617Q274.927-1.811 275.183-2.166Q275.438-2.522 275.438-2.987L275.438-2.987Q275.438-3.621 275.082-3.992Q274.726-4.364 274.030-4.581L274.030-4.581L271.863-5.261Q270.563-5.664 269.883-6.492Q269.202-7.320 269.202-8.434L269.202-8.434Q269.202-9.409 269.681-10.144Q270.161-10.879 271.004-11.297Q271.848-11.714 272.931-11.714L272.931-11.714Q273.968-11.714 274.819-11.351Q275.670-10.987 276.281-10.353Q276.893-9.718 277.171-8.882L277.171-8.882L275.655-8.217Q275.314-9.130 274.595-9.625Q273.875-10.120 272.931-10.120L272.931-10.120Q272.359-10.120 271.925-9.927Q271.492-9.734 271.252-9.370Q271.012-9.006 271.012-8.527L271.012-8.527Q271.012-7.969 271.368-7.536Q271.724-7.103 272.451-6.886L272.451-6.886L274.463-6.252Q275.840-5.834 276.537-5.052Q277.233-4.271 277.233-3.110L277.233-3.110Q277.233-2.151 276.730-1.408Q276.227-0.665 275.345-0.240Q274.463 0.186 273.302 0.186Z M286.327 0L284.516 0L284.516-9.904L281.452-9.904L281.452-11.529L289.345-11.529L289.345-9.904L286.327-9.904L286.327 0Z M301.502 0L293.904 0L293.904-11.529L301.502-11.529L301.502-9.904L295.730-9.904L295.730-6.592L301.193-6.592L301.193-4.967L295.730-4.967L295.730-1.625L301.502-1.625L301.502 0Z M308.229 0L306.403 0L306.403-11.529L308.105-11.529L312.004-6.113L315.842-11.529L317.544-11.529L317.544 0L315.734 0L315.734-8.264L312.066-3.250L311.881-3.250L308.229-8.356L308.229 0Z"></path>
  </g>
</svg>