<?xml version="1.0" encoding="UTF-8"?>
<svg xmlns="http://www.w3.org/2000/svg" viewBox="0 0 64 64" width="100%" height="100%" preserveAspectRatio="xMidYMid meet" role="img" aria-label="ChurchMS emblem"><title>ChurchMS emblem (animated)</title>
  <style>
    .spin{transform-origin:0 0;animation:spin 18s linear infinite}
    @keyframes spin{to{transform:rotate(360deg)}}
    .grow{transform-box:fill-box;transform-origin:50% 100%;animation:grow 2.4s ease-in-out infinite}
    @keyframes grow{0%,100%{transform:scale(1)}50%{transform:scale(1.06)}}
    @media (prefers-reduced-motion:reduce){.spin,.grow{animation:none!important}.grow{transform:none}}
  </style>
  <defs><linearGradient id="brand" x1="0" y1="0" x2="1" y2="1"><stop offset="0" stop-color="#5e6ad2"/><stop offset="1" stop-color="#7a85e8"/></linearGradient></defs>
  <g id="emblem"><defs><mask id="cut" maskUnits="userSpaceOnUse" x="0" y="0" width="64" height="64"><rect x="0" y="0" width="64" height="64" fill="#fff"/><g class="grow"><path fill="#000" d="M26.5,54 L26.5,43 A5.5,5.5 0 0 1 37.5,43 L37.5,54 Z"/><circle fill="#000" cx="32" cy="34.5" r="1.9"/></g></mask></defs><g fill="url(#brand)" mask="url(#cut)"><path d="M32,5 L35,17 L49,31 L15,31 L29,17 Z"/><path d="M21,30 h22 a3,3 0 0 1 3,3 v18 a3,3 0 0 1 -3,3 h-22 a3,3 0 0 1 -3,-3 v-18 a3,3 0 0 1 3,-3 z"/></g></g>
</svg>