<?xml version="1.0"?>
<svg xmlns="http://www.w3.org/2000/svg" viewBox="0 0 64 64" width="100%" height="100%" preserveAspectRatio="xMidYMid meet" role="img" aria-label="ChurchMS emblem">
  <title>ChurchMS emblem</title>
  <desc>Church silhouette: a gable roof whose central peak rises into an integrated steeple, over a nave body with an arched door and rose window. Layers: each part is a named group with its own title/desc. HOW TO RECOLOUR: every colour is a named token in <defs> (brand, ink, grey, etc.) referenced by fill=&#34;url(#token)&#34;. Edit a token&#39;s stop-color(s) once to recolour everywhere it is used.</defs></desc>
  <defs>
    <linearGradient id="brand" gradientUnits="userSpaceOnUse" x1="8" y1="6" x2="56" y2="58"><desc>BRAND token — primary indigo gradient. Edit these two stop-colors to recolour the brand (emblem + &#34;MS&#34;) everywhere it is referenced via fill=&#34;url(#brand)&#34;.</desc><stop offset="0" stop-color="#5e6ad2"></stop><stop offset="1" stop-color="#7a85e8"></stop></linearGradient>
  </defs>
  <g id="emblem" fill="url(#brand)">
      <g id="ch-roof"><title>Roof &amp; steeple</title><desc>Gable roof whose central peak rises into an integrated steeple.</desc>
        <path d="M32,5 L35,17 L49,31 L15,31 L29,17 Z"></path>
      </g>
      <g id="ch-body"><title>Body</title><desc>Nave wall; the arched door and rose window are evenodd knockouts.</desc>
        <path fill-rule="evenodd" d="M21,30 h22 a3,3 0 0 1 3,3 v18 a3,3 0 0 1 -3,3 h-22 a3,3 0 0 1 -3,-3 v-18 a3,3 0 0 1 3,-3 z M26.5,54 L26.5,43 A5.5,5.5 0 0 1 37.5,43 L37.5,54 Z M32,34.3 m-2.3,0 a2.3,2.3 0 1 0 4.6,0 a2.3,2.3 0 1 0 -4.6,0 z"></path>
      </g>
  </g>
</svg>