<?xml version="1.0"?>
<svg xmlns="http://www.w3.org/2000/svg" viewBox="-6.80 -58.45 332.72 69.22" width="100%" height="100%" preserveAspectRatio="xMidYMid meet" role="img" aria-label="ChurchMS">
  <title>ChurchMS</title>
  <desc>One continuous wordmark, no space: heavy &#34;Church&#34; + &#34;MS&#34;. Wordmark text is outlined from Plus Jakarta Sans (prefix 700, &#34;MS&#34; 800, descriptor 600) — no font dependency. HOW TO RECOLOUR: every colour is a named token in <defs> (brand, ink, grey, etc.) referenced by fill=&#34;url(#token)&#34;. Edit a token&#39;s stop-color(s) once to recolour everywhere it is used.</defs></desc>
  <defs>
    <linearGradient id="brand" gradientUnits="userSpaceOnUse" x1="224.184" y1="-48.448" x2="315.92" y2="0.768"><desc>BRAND token — primary indigo gradient. Edit these two stop-colors to recolour the brand (emblem + &#34;MS&#34;) everywhere it is referenced via fill=&#34;url(#brand)&#34;.</desc><stop offset="0" stop-color="#5e6ad2"></stop><stop offset="1" stop-color="#7a85e8"></stop></linearGradient>
    <linearGradient id="ink"><desc>INK token — wordmark prefix (near-black). Edit the stop-colors to recolour everything referencing fill=&#34;url(#ink)&#34;.</desc><stop offset="0" stop-color="#23263a"></stop><stop offset="1" stop-color="#23263a"></stop></linearGradient>
  </defs>
  <g id="wordmark">
    <g id="wm-prefix"><title>Prefix &#34;Church&#34;</title><desc>Plus Jakarta Sans 700, INK token.</desc><path fill="url(#ink)" d="M27.008 0.768L27.008 0.768Q21.888 0.768 17.568-1.088Q13.248-2.944 10.016-6.272Q6.784-9.600 4.992-14.080Q3.200-18.560 3.200-23.872L3.200-23.872Q3.200-29.184 4.960-33.696Q6.720-38.208 9.952-41.504Q13.184-44.800 17.536-46.624Q21.888-48.448 27.008-48.448L27.008-48.448Q32.128-48.448 36.192-46.720Q40.256-44.992 43.072-42.144Q45.888-39.296 47.104-35.904L47.104-35.904L39.296-32.256Q37.952-35.840 34.752-38.176Q31.552-40.512 27.008-40.512L27.008-40.512Q22.528-40.512 19.104-38.400Q15.680-36.288 13.792-32.576Q11.904-28.864 11.904-23.872L11.904-23.872Q11.904-18.880 13.792-15.136Q15.680-11.392 19.104-9.280Q22.528-7.168 27.008-7.168L27.008-7.168Q31.552-7.168 34.752-9.504Q37.952-11.840 39.296-15.424L39.296-15.424L47.104-11.776Q45.888-8.384 43.072-5.536Q40.256-2.688 36.192-0.960Q32.128 0.768 27.008 0.768Z M60.824 0L52.440 0L52.440-48.448L60.824-48.448L60.824-31.360Q61.976-32.960 63.704-33.984L63.704-33.984Q66.456-35.584 70.168-35.584L70.168-35.584Q74.008-35.584 76.984-33.920Q79.960-32.256 81.624-29.280Q83.288-26.304 83.288-22.400L83.288-22.400L83.288 0L74.904 0L74.904-20.416Q74.904-22.720 74.008-24.384Q73.112-26.048 71.544-26.976Q69.976-27.904 67.864-27.904L67.864-27.904Q65.816-27.904 64.216-26.976Q62.616-26.048 61.720-24.384Q60.824-22.720 60.824-20.416L60.824-20.416L60.824 0Z M101.808 0.768L101.808 0.768Q97.776 0.768 94.800-1.024Q91.824-2.816 90.256-6.016Q88.688-9.216 88.688-13.504L88.688-13.504L88.688-34.816L97.072-34.816L97.072-14.208Q97.072-12.032 97.936-10.400Q98.800-8.768 100.432-7.840Q102.064-6.912 104.112-6.912Q106.160-6.912 107.760-7.840Q109.360-8.768 110.256-10.432Q111.152-12.096 111.152-14.400L111.152-14.400L111.152-34.816L119.536-34.816L119.536 0L111.600 0L111.600-4.160Q110.384-2.048 108.336-0.832L108.336-0.832Q105.520 0.768 101.808 0.768Z M134.728 0L126.344 0L126.344-34.816L134.216-34.816L134.216-29.888Q135.368-32.512 137.416-33.664L137.416-33.664Q139.976-35.200 143.624-35.200L143.624-35.200L145.672-35.200L145.672-27.776L142.664-27.776Q139.080-27.776 136.904-25.568Q134.728-23.360 134.728-19.392L134.728-19.392L134.728 0Z M166.048 0.768L166.048 0.768Q160.864 0.768 156.736-1.632Q152.608-4.032 150.240-8.160Q147.872-12.288 147.872-17.472L147.872-17.472Q147.872-22.656 150.240-26.752Q152.608-30.848 156.736-33.216Q160.864-35.584 166.048-35.584L166.048-35.584Q169.760-35.584 172.960-34.272Q176.160-32.960 178.496-30.688Q180.832-28.416 181.856-25.280L181.856-25.280L174.496-22.080Q173.536-24.704 171.264-26.304Q168.992-27.904 166.048-27.904L166.048-27.904Q163.296-27.904 161.152-26.560Q159.008-25.216 157.792-22.848Q156.576-20.480 156.576-17.408L156.576-17.408Q156.576-14.336 157.792-11.968Q159.008-9.600 161.152-8.256Q163.296-6.912 166.048-6.912L166.048-6.912Q169.056-6.912 171.296-8.512Q173.536-10.112 174.496-12.800L174.496-12.800L181.856-9.472Q180.832-6.528 178.528-4.192Q176.224-1.856 173.024-0.544Q169.824 0.768 166.048 0.768Z M195.576 0L187.192 0L187.192-48.448L195.576-48.448L195.576-31.360Q196.728-32.960 198.456-33.984L198.456-33.984Q201.208-35.584 204.920-35.584L204.920-35.584Q208.760-35.584 211.736-33.920Q214.712-32.256 216.376-29.280Q218.040-26.304 218.040-22.400L218.040-22.400L218.040 0L209.656 0L209.656-20.416Q209.656-22.720 208.760-24.384Q207.864-26.048 206.296-26.976Q204.728-27.904 202.616-27.904L202.616-27.904Q200.568-27.904 198.968-26.976Q197.368-26.048 196.472-24.384Q195.576-22.720 195.576-20.416L195.576-20.416L195.576 0Z"></path></g>
    <g id="wm-ms"><title>&#34;MS&#34;</title><desc>Plus Jakarta Sans 800, BRAND token.</desc><path fill="url(#brand)" d="M234.104 0L224.184 0L224.184-47.680L233.784-47.680L249.336-27.008L264.504-47.680L274.104-47.680L274.104 0L264.184 0L264.184-30.720L249.784-12.160L248.504-12.160L234.104-31.424L234.104 0Z M298.896 0.768L298.896 0.768Q294.416 0.768 290.480-0.864Q286.544-2.496 283.696-5.504Q280.848-8.512 279.440-12.608L279.440-12.608L287.568-16.256Q289.360-12.352 292.528-10.112Q295.696-7.872 299.536-7.872L299.536-7.872Q301.584-7.872 303.056-8.512Q304.528-9.152 305.360-10.272Q306.192-11.392 306.192-12.928L306.192-12.928Q306.192-14.592 305.168-15.776Q304.144-16.960 301.968-17.664L301.968-17.664L292.624-20.736Q286.928-22.592 284.048-26.016Q281.168-29.440 281.168-34.240L281.168-34.240Q281.168-38.464 283.248-41.664Q285.328-44.864 289.072-46.656Q292.816-48.448 297.680-48.448L297.680-48.448Q301.968-48.448 305.616-46.976Q309.264-45.504 311.920-42.816Q314.576-40.128 315.920-36.352L315.920-36.352L307.856-32.704Q306.512-36.032 303.824-37.920Q301.136-39.808 297.680-39.808L297.680-39.808Q295.696-39.808 294.160-39.168Q292.624-38.528 291.792-37.344Q290.960-36.160 290.960-34.624L290.960-34.624Q290.960-32.960 292.048-31.712Q293.136-30.464 295.312-29.760L295.312-29.760L304.464-26.816Q310.224-24.960 313.072-21.632Q315.920-18.304 315.920-13.504L315.920-13.504Q315.920-9.344 313.744-6.112Q311.568-2.880 307.760-1.056Q303.952 0.768 298.896 0.768Z"></path></g>
  </g>
</svg>