<?xml version="1.0"?>
<svg xmlns="http://www.w3.org/2000/svg" viewBox="-10.00 -21.55 341.69 31.73" width="100%" height="100%" preserveAspectRatio="xMidYMid meet" role="img" aria-label="INTERNAL MANAGEMENT PORTAL">
  <title>INTERNAL MANAGEMENT PORTAL</title>
  <desc>Descriptor, letterspaced caps, justified to the WebMS-Intra wordmark width. Wordmark text is outlined from Plus Jakarta Sans (Web 700, MS 800, Intra 600, descriptor 600) — no font dependency. HOW TO RECOLOUR: every colour is a named token in <defs> (brand, ink, grey, intra, on-brand) referenced by url(#token). Edit a token&#39;s stop-color(s) once to recolour everywhere it is used.</defs></desc>
  <defs>
    <linearGradient id="grey"><desc>GREY token — descriptor / subtag. Edit the stop-colors to recolour everything referencing url(#grey).</desc><stop offset="0" stop-color="#8b90a0"></stop><stop offset="1" stop-color="#8b90a0"></stop></linearGradient>
  </defs>
  <g id="subtag"><title>INTERNAL MANAGEMENT PORTAL</title><desc>600 weight, GREY token, tracked to wordmark width.</desc>
    <path fill="url(#grey)" d="M2.976 0L1.175 0L1.175-11.369L2.976-11.369L2.976 0Z M10.096 0L8.295 0L8.295-11.369L9.745-11.369L15.437-3.510L15.437-11.369L17.222-11.369L17.222 0L15.772 0L10.096-7.950L10.096 0Z M26.341 0L24.556 0L24.556-9.766L21.534-9.766L21.534-11.369L29.317-11.369L29.317-9.766L26.341-9.766L26.341 0Z M41.122 0L33.629 0L33.629-11.369L41.122-11.369L41.122-9.766L35.430-9.766L35.430-6.501L40.816-6.501L40.816-4.898L35.430-4.898L35.430-1.602L41.122-1.602L41.122 0Z M47.570 0L45.770 0L45.770-11.369L49.905-11.369Q51.050-11.369 51.919-10.949Q52.789-10.529 53.285-9.728Q53.781-8.927 53.781-7.813L53.781-7.813Q53.781-6.638 53.194-5.799Q52.606-4.959 51.614-4.578L51.614-4.578L54.239 0L52.194 0L49.783-4.273L47.570-4.273L47.570 0ZM47.570-9.766L47.570-5.875L49.936-5.875Q50.561-5.875 51.019-6.119Q51.477-6.363 51.729-6.798Q51.980-7.233 51.980-7.828Q51.980-8.423 51.729-8.858Q51.477-9.293 51.019-9.530Q50.561-9.766 49.936-9.766L49.936-9.766L47.570-9.766Z M60.520 0L58.719 0L58.719-11.369L60.169-11.369L65.861-3.510L65.861-11.369L67.646-11.369L67.646 0L66.196 0L60.520-7.950L60.520 0Z M73.881 0L71.958 0L75.956-11.369L78.184-11.369L82.182 0L80.260 0L79.390-2.548L74.766-2.548L73.881 0ZM77.070-9.369L75.285-4.151L78.840-4.151L77.070-9.369Z M93.209 0L86.495 0L86.495-11.369L88.295-11.369L88.295-1.602L93.209-1.602L93.209 0Z  M105.130 0L103.329 0L103.329-11.369L105.007-11.369L108.853-6.028L112.637-11.369L114.316-11.369L114.316 0L112.530 0L112.530-8.149L108.914-3.205L108.731-3.205L105.130-8.240L105.130 0Z M120.551 0L118.628 0L122.626-11.369L124.854-11.369L128.852 0L126.929 0L126.060-2.548L121.436-2.548L120.551 0ZM123.740-9.369L121.955-4.151L125.510-4.151L123.740-9.369Z M134.965 0L133.165 0L133.165-11.369L134.614-11.369L140.306-3.510L140.306-11.369L142.091-11.369L142.091 0L140.642 0L134.965-7.950L134.965 0Z M148.326 0L146.404 0L150.402-11.369L152.630-11.369L156.628 0L154.705 0L153.835-2.548L149.212-2.548L148.326 0ZM151.516-9.369L149.730-4.151L153.286-4.151L151.516-9.369Z M166.266 0.183L166.266 0.183Q165.060 0.183 164.030-0.259Q163.000-0.702 162.230-1.488Q161.459-2.274 161.032-3.342Q160.604-4.410 160.604-5.692L160.604-5.692Q160.604-6.958 161.024-8.034Q161.444-9.110 162.207-9.896Q162.970-10.682 163.992-11.117Q165.014-11.552 166.235-11.552L166.235-11.552Q167.441-11.552 168.394-11.140Q169.348-10.728 170.004-10.064Q170.661-9.400 170.950-8.622L170.950-8.622L169.348-7.844Q168.997-8.774 168.188-9.347Q167.380-9.919 166.235-9.919L166.235-9.919Q165.106-9.919 164.236-9.385Q163.366-8.851 162.886-7.905Q162.405-6.958 162.405-5.692Q162.405-4.425 162.901-3.472Q163.397-2.518 164.267-1.991Q165.137-1.465 166.266-1.465L166.266-1.465Q167.212-1.465 167.998-1.854Q168.784-2.243 169.257-2.953Q169.730-3.662 169.730-4.608L169.730-4.608L169.730-4.654L166.235-4.654L166.235-6.180L171.515-6.180L171.515-5.112Q171.515-3.861 171.088-2.876Q170.661-1.892 169.928-1.206Q169.196-0.519 168.250-0.168Q167.303 0.183 166.266 0.183Z M183.808 0L176.316 0L176.316-11.369L183.808-11.369L183.808-9.766L178.116-9.766L178.116-6.501L183.503-6.501L183.503-4.898L178.116-4.898L178.116-1.602L183.808-1.602L183.808 0Z M190.257 0L188.456 0L188.456-11.369L190.135-11.369L193.980-6.028L197.765-11.369L199.443-11.369L199.443 0L197.658 0L197.658-8.149L194.041-3.205L193.858-3.205L190.257-8.240L190.257 0Z M212.255 0L204.763 0L204.763-11.369L212.255-11.369L212.255-9.766L206.563-9.766L206.563-6.501L211.950-6.501L211.950-4.898L206.563-4.898L206.563-1.602L212.255-1.602L212.255 0Z M218.704 0L216.903 0L216.903-11.369L218.353-11.369L224.045-3.510L224.045-11.369L225.830-11.369L225.830 0L224.381 0L218.704-7.950L218.704 0Z M234.949 0L233.164 0L233.164-9.766L230.142-9.766L230.142-11.369L237.925-11.369L237.925-9.766L234.949-9.766L234.949 0Z  M249.678 0L247.877 0L247.877-11.369L252.013-11.369Q253.157-11.369 254.034-10.949Q254.912-10.529 255.400-9.728Q255.889-8.927 255.889-7.813L255.889-7.813Q255.889-6.714 255.393-5.921Q254.897-5.127 254.027-4.700Q253.157-4.273 252.013-4.273L252.013-4.273L249.678-4.273L249.678 0ZM249.678-9.766L249.678-5.875L252.058-5.875Q252.669-5.875 253.126-6.119Q253.584-6.363 253.844-6.798Q254.103-7.233 254.103-7.828L254.103-7.828Q254.103-8.423 253.844-8.858Q253.584-9.293 253.126-9.530Q252.669-9.766 252.058-9.766L252.058-9.766L249.678-9.766Z M266.228 0.183L266.228 0.183Q264.992 0.183 263.932-0.259Q262.871-0.702 262.070-1.495Q261.269-2.289 260.819-3.357Q260.369-4.425 260.369-5.692L260.369-5.692Q260.369-6.958 260.819-8.034Q261.269-9.110 262.062-9.896Q262.856-10.682 263.924-11.117Q264.992-11.552 266.228-11.552L266.228-11.552Q267.480-11.552 268.540-11.117Q269.601-10.682 270.402-9.888Q271.203-9.095 271.646-8.027Q272.088-6.958 272.088-5.692L272.088-5.692Q272.088-4.425 271.638-3.357Q271.188-2.289 270.394-1.495Q269.601-0.702 268.533-0.259Q267.464 0.183 266.228 0.183ZM266.228-1.465L266.228-1.465Q267.113-1.465 267.854-1.785Q268.594-2.106 269.143-2.678Q269.692-3.250 269.998-4.021Q270.303-4.792 270.303-5.692L270.303-5.692Q270.303-6.592 269.998-7.355Q269.692-8.118 269.143-8.698Q268.594-9.278 267.854-9.598Q267.113-9.919 266.228-9.919L266.228-9.919Q265.343-9.919 264.603-9.598Q263.863-9.278 263.314-8.698Q262.764-8.118 262.467-7.355Q262.169-6.592 262.169-5.692L262.169-5.692Q262.169-4.792 262.467-4.021Q262.764-3.250 263.314-2.678Q263.863-2.106 264.611-1.785Q265.359-1.465 266.228-1.465Z M278.873 0L277.072 0L277.072-11.369L281.207-11.369Q282.352-11.369 283.222-10.949Q284.091-10.529 284.587-9.728Q285.083-8.927 285.083-7.813L285.083-7.813Q285.083-6.638 284.496-5.799Q283.908-4.959 282.916-4.578L282.916-4.578L285.541 0L283.496 0L281.085-4.273L278.873-4.273L278.873 0ZM278.873-9.766L278.873-5.875L281.238-5.875Q281.863-5.875 282.321-6.119Q282.779-6.363 283.031-6.798Q283.283-7.233 283.283-7.828Q283.283-8.423 283.031-8.858Q282.779-9.293 282.321-9.530Q281.863-9.766 281.238-9.766L281.238-9.766L278.873-9.766Z M293.821 0L292.035 0L292.035-9.766L289.014-9.766L289.014-11.369L296.797-11.369L296.797-9.766L293.821-9.766L293.821 0Z M302.024 0L300.102 0L304.100-11.369L306.328-11.369L310.326 0L308.403 0L307.533-2.548L302.909-2.548L302.024 0ZM305.214-9.369L303.428-4.151L306.984-4.151L305.214-9.369Z M321.352 0L314.638 0L314.638-11.369L316.439-11.369L316.439-1.602L321.352-1.602L321.352 0Z"></path>
  </g>
</svg>